<svg width="147" height="20" viewBox="0 0 147 20" fill="none" xmlns="http://www.w3.org/2000/svg">
<path d="M5.91133 4.78818V19.7044H11.3498V4.78818H17.2611V0.492611H0V4.78818H5.91133Z" fill="#1972F5"/>
<path d="M32.4532 13.6749C33.5883 13.1436 34.5511 12.3038 35.2315 11.2512C35.91 10.1589 36.2526 8.89131 36.2167 7.60591C36.2627 6.28948 35.9114 4.98969 35.2086 3.87565C34.5057 2.76161 33.4838 1.88491 32.2759 1.35961C30.8423 0.757286 29.2985 0.461945 27.7438 0.492612H18.8965V4.76847H27.3498C28.253 4.70828 29.1479 4.97395 29.8719 5.51724C30.1564 5.78296 30.3795 6.10746 30.5258 6.46816C30.6722 6.82887 30.7381 7.21712 30.7192 7.60591C30.7395 7.99486 30.6741 8.38351 30.5277 8.74442C30.3813 9.10533 30.1574 9.42969 29.8719 9.69458C29.1425 10.2239 28.2481 10.4754 27.3498 10.4039H18.8965V19.7044H24.335V14.601H27.2906L30.7783 19.7044H36.6897L32.4532 13.6749Z" fill="#1972F5"/>
<path d="M51.8818 0.492611H46.5222L38.0295 19.7044H43.5862L45.0837 15.9803L46.6798 12.0394L49.1428 5.81281L51.6059 11.9606L53.202 15.9015L54.7192 19.6256H60.3744L51.8818 0.492611Z" fill="#1972F5"/>
<path d="M64.67 18.798C66.3504 19.6623 68.2191 20.0956 70.1084 20.0591C71.739 20.0892 73.3574 19.7736 74.8572 19.133C76.2398 18.5418 77.4524 17.6137 78.3843 16.4335L74.9163 13.3005C74.0821 14.3927 72.8856 15.1515 71.542 15.4404C70.1983 15.7294 68.7957 15.5296 67.5862 14.8769C66.7411 14.44 66.0526 13.7515 65.6158 12.9064C65.1746 12.0151 64.9451 11.034 64.9451 10.0394C64.9451 9.04487 65.1746 8.06375 65.6158 7.17242C66.0608 6.33333 66.7471 5.64696 67.5862 5.20197C68.4447 4.73682 69.408 4.49939 70.3843 4.51232C71.2588 4.52812 72.119 4.7378 72.9027 5.12625C73.6864 5.51469 74.3741 6.07222 74.9163 6.75862L78.3843 3.62562C77.4347 2.46844 76.2265 1.55052 74.8572 0.945814C73.3564 0.3063 71.7396 -0.0157234 70.1084 1.15461e-06C68.2159 -0.0235149 66.3471 0.423358 64.67 1.30049C63.1321 2.11902 61.8501 3.34642 60.9655 4.84729C60.0391 6.4074 59.5681 8.1958 59.6059 10.0099C59.5681 11.8239 60.0391 13.6123 60.9655 15.1724C61.8353 16.7049 63.1191 17.9615 64.67 18.798Z" fill="#1972F5"/>
<path d="M85.1626 4.78818V19.7044H90.5222V4.78818H96.4335V0.492611H79.2512V4.78818H85.1626Z" fill="#1972F5"/>
<path d="M98.1478 0.492611V19.7044H103.586V0.492611H98.1478Z" fill="#1972F5"/>
<path d="M118.64 0.492611H113.281L104.788 19.7044H110.345L111.862 15.9803L113.438 12.0394L115.921 5.89163L118.384 12.0394L119.98 15.9803L121.498 19.7044H127.153L118.64 0.492611Z" fill="#1972F5"/>
<path d="M128.335 19.7044H133.675V13.9704L128.374 7.19212L128.335 19.7044ZM141.301 0.492611V6.00985L146.621 12.4335V0.492611H141.301ZM141.301 10.7389L132.808 0.492611H128.335V3.03448L133.675 9.45813L142.148 19.7044H146.64V17.4778L141.301 10.6995V10.7389Z" fill="#1972F5"/>
</svg>
