<svg width="20" height="6" viewBox="0 0 20 6" fill="none" xmlns="http://www.w3.org/2000/svg">
<path d="M3 1C1.9 1 1 1.93195 1 3.07101C1 4.21006 1.9 5.14201 3 5.14201C4.1 5.14201 5 4.21006 5 3.07101C5 1.93195 4.1 1 3 1Z" stroke="black" stroke-width="1.5"/>
<path d="M17 1C15.9 1 15 1.93195 15 3.07101C15 4.21006 15.9 5.14201 17 5.14201C18.1 5.14201 19 4.21006 19 3.07101C19 1.93195 18.1 1 17 1Z" stroke="black" stroke-width="1.5"/>
<path d="M10 1C8.9 1 8 1.93195 8 3.07101C8 4.21006 8.9 5.14201 10 5.14201C11.1 5.14201 12 4.21006 12 3.07101C12 1.93195 11.1 1 10 1Z" stroke="black" stroke-width="1.5"/>
</svg>
