<svg width="24" height="24" viewBox="0 0 24 24" fill="none" xmlns="http://www.w3.org/2000/svg">
<circle cx="12" cy="12" r="12" fill="#D9D9D9"/>
<path d="M17.7267 18.6666C17.7267 16.0866 15.16 14 12 14C8.84 14 6.27333 16.0866 6.27333 18.6666M12 12C12.8841 12 13.7319 11.6488 14.357 11.0237C14.9821 10.3985 15.3333 9.5507 15.3333 8.66665C15.3333 7.78259 14.9821 6.93475 14.357 6.30962C13.7319 5.6845 12.8841 5.33331 12 5.33331C11.1159 5.33331 10.2681 5.6845 9.64298 6.30962C9.01786 6.93475 8.66667 7.78259 8.66667 8.66665C8.66667 9.5507 9.01786 10.3985 9.64298 11.0237C10.2681 11.6488 11.1159 12 12 12Z" stroke="black" stroke-width="1.5" stroke-linecap="round" stroke-linejoin="round"/>
</svg>
